<svg width="288" height="279" viewBox="0 0 288 279" fill="none" xmlns="http://www.w3.org/2000/svg">
<path d="M57.4355 145.393C56.1377 148.147 56.5839 151.38 58.5921 153.699C60.5933 156.021 63.8001 157.028 66.8375 156.274C75.813 154.037 87.337 152.911 97.721 157.235C105.803 136.462 114.981 119.877 123.331 107.238C108.009 104.966 76.138 105.79 57.4355 145.393Z" fill="#E2E2E2"/>
<path d="M82.7438 123.667C94.8504 117.736 107.338 115.743 116.951 117.45C119.109 113.797 121.246 110.395 123.331 107.239C108.009 104.966 76.1382 105.791 57.4356 145.393C57.0695 146.171 56.8472 146.986 56.7545 147.808C60.7749 138.928 70.098 129.862 82.7438 123.667Z" fill="#999999"/>
<path d="M138.851 224.264C136.008 225.521 132.671 225.089 130.277 223.144C127.88 221.205 126.84 218.098 127.619 215.156C129.928 206.461 131.09 195.297 126.627 185.238C148.07 177.408 165.19 168.517 178.236 160.428C180.582 175.271 179.731 206.146 138.851 224.264Z" fill="#D9D9D9"/>
<path d="M161.278 199.747C167.4 188.018 169.457 175.921 167.696 166.609C171.466 164.518 174.979 162.448 178.236 160.428C180.582 175.271 179.731 206.146 138.851 224.264C138.049 224.619 137.207 224.834 136.359 224.924C145.525 221.03 154.883 211.998 161.278 199.747Z" fill="#999999"/>
<path d="M96.5858 222.009C86.6714 231.614 25.6 255.997 25.6 255.997C25.6 255.997 50.77 196.834 60.6841 187.23C70.5977 177.626 86.6713 177.627 96.5849 187.23C106.499 196.835 106.499 212.406 96.5858 222.009Z" fill="#FFEF00"/>
<path d="M95.9931 218.717C87.181 227.254 32.8997 248.925 32.8997 248.925C32.8997 248.925 55.2712 196.341 64.0831 187.804C72.8945 179.269 87.181 179.269 95.9924 187.805C104.804 196.341 104.804 210.181 95.9931 218.717Z" fill="#FFD500"/>
<path d="M95.4003 215.424C87.6906 222.894 40.1995 241.854 40.1995 241.854C40.1995 241.854 59.7726 195.848 67.482 188.379C75.1913 180.911 87.6905 180.911 95.3999 188.379C103.109 195.847 103.109 207.956 95.4003 215.424Z" fill="#FFBA00"/>
<path d="M94.8075 212.132C88.2002 218.533 47.4993 234.782 47.4993 234.782C47.4993 234.782 64.2738 195.354 70.881 188.953C77.4881 182.552 88.2001 182.552 94.8073 188.953C101.415 195.353 101.415 205.731 94.8075 212.132Z" fill="#FFA000"/>
<path fill-rule="evenodd" clip-rule="evenodd" d="M105.676 162.873L81.8085 174.466C81.8085 174.466 80.3488 179.729 91.6692 190.933C102.991 202.135 108.389 200.768 108.389 200.768L120.859 177.896L105.676 162.873Z" fill="#0F3041"/>
<path d="M211.082 136.145C244.238 104.666 259.882 54.7823 259.792 37.1341C259.77 34.4664 258.652 31.9175 256.687 30.0398C254.721 28.1748 252.068 27.144 249.31 27.1768C231.327 27.4055 180.593 43.241 148.218 75.2386C148.218 75.2386 116.377 102.914 95.429 163.007L107.743 174.936L108.173 175.353L120.497 187.293C182.507 166.991 211.082 136.145 211.082 136.145Z" fill="#0F3041"/>
<path d="M128.529 98.1749C136.629 108.773 145.799 119.134 156.021 129.037C166.073 138.774 176.581 147.522 187.329 155.271C203.388 144.447 211.082 136.145 211.082 136.145C244.238 104.666 259.882 54.7823 259.792 37.1341C259.77 34.4664 258.652 31.9175 256.687 30.0398C254.721 28.1748 252.068 27.144 249.31 27.1768C231.327 27.4055 180.593 43.241 148.218 75.2386C148.218 75.2386 139.675 82.6662 128.529 98.1749Z" fill="#041921"/>
<path d="M259.792 37.1341C259.77 34.4664 258.652 31.9175 256.687 30.0398C254.721 28.1748 252.068 27.144 249.31 27.1768C231.327 27.4055 180.593 43.241 148.218 75.2386C148.218 75.2386 140.603 81.8608 130.373 95.6496C138.465 106.429 147.722 116.964 158.093 127.011C168.3 136.898 178.993 145.737 189.935 153.487C204.22 143.548 211.082 136.145 211.082 136.145C244.238 104.666 259.882 54.7823 259.792 37.1341Z" fill="#D9D9D9"/>
<path d="M213.217 112.508C201.896 123.475 183.542 123.476 172.219 112.507C160.896 101.538 160.9 83.7596 172.221 72.7924C183.537 61.8296 201.892 61.8227 213.215 72.7919C224.538 83.7609 224.534 101.545 213.217 112.508Z" fill="#0F3041"/>
<path d="M210.302 109.684C200.591 119.092 184.846 119.092 175.134 109.683C165.421 100.274 165.424 85.0241 175.136 75.6163C184.842 66.2129 200.587 66.2071 210.299 75.6159C220.012 85.0254 220.009 100.28 210.302 109.684Z" fill="#041921"/>
<path d="M208.041 107.494C199.579 115.691 185.859 115.692 177.395 107.493C168.932 99.294 168.935 86.0053 177.397 77.8074C185.855 69.6134 199.575 69.6087 208.038 77.8074C216.502 86.0066 216.499 99.2997 208.041 107.494Z" fill="#FFB200"/>
<mask id="mask0_17_133" style="mask-type:luminance" maskUnits="userSpaceOnUse" x="171" y="71" width="44" height="43">
<path d="M208.041 107.494C199.579 115.691 185.859 115.692 177.395 107.493C168.932 99.294 168.935 86.0053 177.397 77.8074C185.855 69.6134 199.575 69.6087 208.038 77.8074C216.502 86.0066 216.499 99.2997 208.041 107.494Z" fill="white"/>
</mask>
<g mask="url(#mask0_17_133)">
<path opacity="0.2" d="M190.123 136.685L210.371 40.2915L202.731 38.7855L182.483 135.179L190.123 136.685Z" fill="white"/>
<path opacity="0.2" d="M171.559 133.031L191.805 36.6357L199.444 38.1413L179.198 134.537L171.559 133.031Z" fill="white"/>
</g>
<path d="M237.482 49.2856C242.742 54.3811 249.595 56.9854 256.488 57.1128C258.725 48.8071 259.815 41.8294 259.792 37.1341C259.77 34.4664 258.652 31.9175 256.687 30.0398C254.721 28.1748 252.068 27.144 249.31 27.1768C244.607 27.2368 237.663 28.3658 229.396 30.57C229.45 37.3495 232.143 44.1131 237.482 49.2856Z" fill="#0F3041"/>
<path fill-rule="evenodd" clip-rule="evenodd" d="M88.9876 170.98L112.311 193.575L116.268 186.318L96.6126 167.276L88.9876 170.98Z" fill="#24505E"/>
<path d="M123.649 189.038L94.0667 160.381L94.0663 160.381C92.7564 159.121 90.4173 159.338 88.8369 160.869C87.254 162.402 87.0315 164.674 88.3401 165.941C88.3901 165.99 88.4445 166.032 88.4977 166.076L117.777 194.44C117.822 194.491 117.865 194.544 117.915 194.592C119.224 195.86 121.568 195.645 123.152 194.111C124.735 192.577 124.957 190.306 123.649 189.038Z" fill="#BFBFBF"/>
<path d="M136.411 96.8901C135.615 97.5015 134.452 97.3634 133.817 96.5795C133.182 95.7952 133.319 94.6678 134.121 94.0653C134.922 93.4634 136.077 93.6065 136.706 94.3829C137.334 95.1578 137.205 96.2796 136.411 96.8901Z" fill="#0F3041"/>
<path d="M134.485 96.0729C134.435 96.0113 134.447 95.9209 134.509 95.8735C135.039 95.4708 135.303 95.2702 135.833 94.8673C135.895 94.8201 135.987 94.8294 136.036 94.8907C136.086 94.952 136.075 95.0414 136.013 95.0888C135.483 95.4917 135.219 95.6948 134.69 96.098C134.628 96.1454 134.535 96.1347 134.485 96.0729Z" fill="#24505E"/>
<path d="M135.674 96.2147C135.253 95.698 135.042 95.4398 134.624 94.9209C134.575 94.8596 134.585 94.7703 134.647 94.7236C134.711 94.6748 134.802 94.6866 134.852 94.7476C135.269 95.2661 135.48 95.5243 135.9 96.0408C135.949 96.1021 135.939 96.191 135.876 96.2397C135.814 96.287 135.724 96.276 135.674 96.2147Z" fill="#24505E"/>
<path d="M141.838 103.332C141.061 103.964 139.893 103.856 139.238 103.089C138.581 102.322 138.689 101.191 139.474 100.568C140.257 99.946 141.416 100.061 142.065 100.82C142.714 101.579 142.615 102.701 141.838 103.332Z" fill="#0F3041"/>
<path d="M139.891 102.565C139.84 102.505 139.85 102.414 139.911 102.365C140.429 101.949 140.688 101.742 141.206 101.326C141.267 101.277 141.359 101.285 141.41 101.345C141.462 101.404 141.453 101.494 141.392 101.542C140.874 101.959 140.615 102.168 140.097 102.584C140.036 102.633 139.943 102.625 139.891 102.565Z" fill="#24505E"/>
<path d="M141.08 102.676C140.646 102.171 140.431 101.918 139.999 101.41C139.948 101.35 139.956 101.26 140.017 101.211C140.079 101.162 140.172 101.171 140.223 101.232C140.654 101.74 140.87 101.992 141.304 102.497C141.355 102.557 141.349 102.645 141.288 102.694C141.227 102.743 141.132 102.737 141.08 102.676Z" fill="#24505E"/>
<path d="M147.438 109.629C146.678 110.281 145.51 110.203 144.832 109.453C144.155 108.704 144.233 107.573 145.001 106.93C145.768 106.287 146.927 106.369 147.597 107.111C148.266 107.852 148.197 108.978 147.438 109.629Z" fill="#0F3041"/>
<path d="M145.472 108.912C145.419 108.853 145.426 108.763 145.486 108.713C145.993 108.283 146.245 108.068 146.752 107.639C146.811 107.588 146.904 107.594 146.957 107.652C147.01 107.71 147.003 107.801 146.944 107.852C146.438 108.282 146.184 108.497 145.678 108.927C145.619 108.978 145.525 108.971 145.472 108.912Z" fill="#24505E"/>
<path d="M146.664 108.993C146.216 108.499 145.993 108.251 145.547 107.755C145.495 107.697 145.501 107.606 145.562 107.556C145.622 107.505 145.713 107.512 145.766 107.571C146.211 108.067 146.435 108.315 146.882 108.808C146.936 108.866 146.93 108.954 146.87 109.005C146.81 109.056 146.717 109.052 146.664 108.993Z" fill="#24505E"/>
<path d="M153.208 115.775C152.467 116.446 151.297 116.399 150.6 115.668C149.902 114.935 149.948 113.803 150.697 113.141C151.446 112.479 152.608 112.532 153.297 113.256C153.986 113.979 153.948 115.105 153.208 115.775Z" fill="#0F3041"/>
<path d="M151.223 115.11C151.169 115.053 151.172 114.963 151.23 114.911C151.725 114.469 151.972 114.246 152.467 113.804C152.525 113.752 152.618 113.757 152.673 113.814C152.727 113.871 152.723 113.961 152.664 114.012C152.17 114.456 151.922 114.676 151.428 115.119C151.37 115.171 151.278 115.168 151.223 115.11Z" fill="#24505E"/>
<path d="M152.417 115.159C151.955 114.677 151.725 114.437 151.266 113.952C151.212 113.895 151.216 113.806 151.275 113.755C151.334 113.702 151.426 113.705 151.481 113.762C151.939 114.246 152.168 114.486 152.628 114.968C152.683 115.025 152.681 115.115 152.622 115.168C152.564 115.22 152.471 115.216 152.417 115.159Z" fill="#24505E"/>
<path d="M159.142 121.77C158.418 122.46 157.248 122.443 156.531 121.73C155.814 121.017 155.828 119.882 156.559 119.201C157.29 118.519 158.452 118.544 159.161 119.249C159.87 119.954 159.864 121.081 159.142 121.77Z" fill="#0F3041"/>
<path d="M157.141 121.155C157.084 121.098 157.085 121.01 157.142 120.956C157.625 120.502 157.866 120.274 158.348 119.819C158.405 119.766 158.496 119.767 158.552 119.823C158.608 119.878 158.608 119.968 158.551 120.022C158.069 120.477 157.829 120.705 157.347 121.16C157.29 121.213 157.197 121.211 157.141 121.155Z" fill="#24505E"/>
<path d="M158.335 121.176C157.86 120.706 157.623 120.47 157.151 119.998C157.095 119.942 157.098 119.851 157.154 119.798C157.212 119.744 157.305 119.747 157.361 119.803C157.832 120.275 158.066 120.509 158.54 120.979C158.596 121.034 158.596 121.123 158.54 121.178C158.483 121.232 158.391 121.231 158.335 121.176Z" fill="#24505E"/>
<path d="M165.238 127.608C164.534 128.316 163.365 128.331 162.629 127.637C161.892 126.941 161.875 125.808 162.587 125.108C163.299 124.408 164.461 124.401 165.189 125.088C165.917 125.775 165.942 126.9 165.238 127.608Z" fill="#0F3041"/>
<path d="M163.222 127.045C163.165 126.992 163.163 126.902 163.218 126.847C163.688 126.38 163.923 126.147 164.392 125.68C164.447 125.625 164.54 125.623 164.597 125.678C164.654 125.732 164.655 125.82 164.6 125.875C164.131 126.343 163.896 126.577 163.427 127.045C163.372 127.1 163.28 127.1 163.222 127.045Z" fill="#24505E"/>
<path d="M164.415 127.036C163.929 126.579 163.685 126.349 163.2 125.889C163.143 125.835 163.143 125.746 163.198 125.691C163.254 125.635 163.346 125.635 163.403 125.689C163.888 126.149 164.131 126.378 164.618 126.834C164.676 126.889 164.677 126.977 164.621 127.032C164.566 127.088 164.473 127.09 164.415 127.036Z" fill="#24505E"/>
<path d="M171.493 133.287C170.809 134.013 169.641 134.057 168.886 133.382C168.131 132.707 168.082 131.574 168.776 130.856C169.468 130.139 170.63 130.102 171.377 130.77C172.123 131.437 172.177 132.562 171.493 133.287Z" fill="#0F3041"/>
<path d="M169.462 132.779C169.403 132.726 169.399 132.636 169.452 132.579C169.909 132.1 170.137 131.86 170.593 131.38C170.648 131.325 170.74 131.321 170.8 131.374C170.858 131.427 170.862 131.515 170.808 131.571C170.352 132.051 170.124 132.293 169.668 132.772C169.614 132.828 169.522 132.831 169.462 132.779Z" fill="#24505E"/>
<path d="M170.656 132.737C170.155 132.292 169.907 132.069 169.41 131.622C169.351 131.569 169.348 131.48 169.402 131.424C169.457 131.367 169.548 131.363 169.606 131.416C170.103 131.862 170.352 132.085 170.851 132.529C170.91 132.582 170.916 132.672 170.862 132.729C170.809 132.785 170.714 132.79 170.656 132.737Z" fill="#24505E"/>
<path d="M177.906 138.806C177.242 139.549 176.073 139.625 175.299 138.969C174.526 138.312 174.446 137.181 175.119 136.445C175.791 135.709 176.953 135.642 177.718 136.291C178.483 136.939 178.569 138.063 177.906 138.806Z" fill="#0F3041"/>
<path d="M175.859 138.35C175.799 138.298 175.793 138.21 175.845 138.152C176.289 137.661 176.51 137.415 176.953 136.923C177.006 136.866 177.099 136.859 177.159 136.911C177.219 136.962 177.225 137.052 177.173 137.11C176.73 137.602 176.51 137.847 176.066 138.338C176.014 138.395 175.919 138.401 175.859 138.35Z" fill="#24505E"/>
<path d="M177.052 138.276C176.541 137.845 176.286 137.63 175.776 137.195C175.716 137.144 175.71 137.053 175.762 136.995C175.816 136.937 175.907 136.933 175.967 136.984C176.477 137.418 176.73 137.633 177.242 138.065C177.302 138.116 177.311 138.205 177.258 138.264C177.207 138.322 177.113 138.328 177.052 138.276Z" fill="#24505E"/>
<path d="M184.471 144.159C183.827 144.92 182.66 145.026 181.869 144.389C181.077 143.753 180.966 142.624 181.619 141.87C182.27 141.117 183.43 141.022 184.214 141.651C184.996 142.279 185.113 143.4 184.471 144.159Z" fill="#0F3041"/>
<path d="M182.41 143.757C182.348 143.707 182.341 143.616 182.392 143.558C182.822 143.056 183.036 142.803 183.466 142.301C183.516 142.242 183.609 142.235 183.671 142.284C183.732 142.334 183.741 142.424 183.691 142.482C183.261 142.985 183.047 143.235 182.618 143.738C182.567 143.796 182.473 143.806 182.41 143.757Z" fill="#24505E"/>
<path d="M183.603 143.652C183.079 143.234 182.816 143.024 182.295 142.603C182.233 142.553 182.227 142.462 182.277 142.403C182.329 142.344 182.42 142.337 182.482 142.387C183.004 142.807 183.263 143.017 183.787 143.436C183.849 143.485 183.859 143.574 183.808 143.635C183.758 143.693 183.665 143.702 183.603 143.652Z" fill="#24505E"/>
<path d="M191.183 149.345C190.562 150.122 189.399 150.255 188.589 149.64C187.779 149.024 187.637 147.898 188.268 147.127C188.898 146.358 190.056 146.233 190.857 146.842C191.657 147.451 191.805 148.569 191.183 149.345Z" fill="#0F3041"/>
<path d="M189.113 148.994C189.049 148.946 189.039 148.857 189.088 148.796C189.504 148.283 189.712 148.026 190.128 147.513C190.177 147.452 190.269 147.441 190.333 147.489C190.396 147.537 190.406 147.627 190.357 147.687C189.941 148.201 189.734 148.456 189.319 148.97C189.27 149.03 189.176 149.042 189.113 148.994Z" fill="#24505E"/>
<path d="M190.301 148.86C189.766 148.455 189.5 148.25 188.967 147.843C188.904 147.794 188.892 147.706 188.941 147.646C188.992 147.586 189.083 147.575 189.146 147.623C189.679 148.03 189.945 148.234 190.48 148.639C190.543 148.687 190.556 148.775 190.506 148.838C190.458 148.898 190.365 148.907 190.301 148.86Z" fill="#24505E"/>
</svg>
