<svg width="1081" height="1062" viewBox="0 0 1081 1062" fill="none" xmlns="http://www.w3.org/2000/svg">
<ellipse cx="493.382" cy="486.191" rx="493.382" ry="486.191" transform="matrix(0.996261 -0.0863987 0.0879193 0.996128 0.626801 93.3832)" fill="#004462"/>
<ellipse cx="453.378" cy="439.188" rx="453.378" ry="439.188" transform="matrix(0.996261 -0.0863987 0.0879193 0.996128 48.0096 124.659)" fill="#005B82"/>
<path d="M895.473 508.822C878.904 743.69 711.254 834.07 513.279 820.348C315.305 806.625 161.975 693.996 178.544 459.128C195.113 224.26 360.857 160.904 558.831 174.626C756.806 188.349 912.041 273.954 895.473 508.822Z" fill="#007BAF"/>
<path d="M205.273 263.35C277.043 149.501 420.736 110.174 526.222 175.513C631.708 240.851 551.37 339.337 479.601 453.186C407.832 567.036 355.392 619.587 249.907 554.249C144.421 488.911 133.504 377.2 205.273 263.35Z" fill="#5CD500"/>
<path d="M917.172 714.476C917.172 774.098 868.081 822.43 807.524 822.43C746.967 822.43 826.046 735.91 826.046 676.289C826.046 616.668 806.977 547.038 867.534 547.038C928.091 547.038 917.172 654.855 917.172 714.476Z" fill="#5CD500"/>
<path d="M636.385 920.882C636.385 995.51 570.366 999.461 500.807 999.461C431.249 999.461 278.548 875.072 278.548 800.444C278.548 725.816 411.986 864.335 481.545 864.335C551.103 864.335 636.385 846.254 636.385 920.882Z" fill="#5CD500"/>
<path d="M760.746 607.937C760.746 674.483 807.749 728.429 725.834 728.429C643.919 728.429 549.704 648.362 549.704 581.816C549.704 515.27 678.831 408.24 760.746 408.24C842.66 408.24 760.746 541.391 760.746 607.937Z" fill="#5CD500"/>
</svg>
