<svg width="40" height="40" viewBox="0 0 40 40" fill="none" xmlns="http://www.w3.org/2000/svg">
<ellipse cx="18.2589" cy="18.3098" rx="18.2589" ry="18.3098" transform="matrix(0.996126 -0.0879325 0.0863857 0.996262 0.0231934 3.51727)" fill="#004462"/>
<ellipse cx="16.7785" cy="16.5397" rx="16.7785" ry="16.5397" transform="matrix(0.996126 -0.0879325 0.0863857 0.996262 1.77649 4.69526)" fill="#005B82"/>
<path d="M33.135 19.1647C32.5219 28.0109 26.3184 31.4151 18.9928 30.8982C11.6671 30.3814 5.99354 26.1392 6.60662 17.293C7.2197 8.44673 13.3527 6.06041 20.6783 6.57727C28.0039 7.09413 33.7481 10.3184 33.135 19.1647Z" fill="#007BAF"/>
<path d="M7.59568 9.91902C10.2513 5.63091 15.5684 4.14969 19.4717 6.61063C23.3749 9.07158 20.4022 12.781 17.7466 17.0691C15.0909 21.3573 13.1505 23.3366 9.24723 20.8757C5.34396 18.4147 4.94002 14.2071 7.59568 9.91902Z" fill="#5CD500"/>
<path d="M33.9379 26.9106C33.9379 29.1562 32.1214 30.9766 29.8806 30.9766C27.6399 30.9766 30.566 27.7179 30.566 25.4722C30.566 23.2266 29.8604 20.6041 32.1012 20.6041C34.3419 20.6041 33.9379 24.665 33.9379 26.9106Z" fill="#5CD500"/>
<path d="M23.548 34.6847C23.548 37.4956 21.1051 37.6444 18.5313 37.6444C15.9574 37.6444 10.3071 32.9593 10.3071 30.1485C10.3071 27.3376 15.2446 32.5549 17.8185 32.5549C20.3923 32.5549 23.548 31.8739 23.548 34.6847Z" fill="#5CD500"/>
<path d="M28.1497 22.8978C28.1497 25.4042 29.8889 27.4361 26.8579 27.4361C23.8268 27.4361 20.3406 24.4204 20.3406 21.914C20.3406 19.4075 25.1186 15.3763 28.1497 15.3763C31.1808 15.3763 28.1497 20.3914 28.1497 22.8978Z" fill="#5CD500"/>
</svg>
