<svg width="100" height="100" viewBox="0 0 100 100" fill="none" xmlns="http://www.w3.org/2000/svg">
<ellipse cx="49.4065" cy="50" rx="49.4065" ry="50" fill="#EB7D00"/>
<ellipse cx="49.4065" cy="50" rx="49.4065" ry="50" fill="#343434"/>
<ellipse cx="49.8516" cy="48.7915" rx="45.4006" ry="45.1662" fill="#FFA135"/>
<ellipse cx="49.8516" cy="48.7915" rx="45.4006" ry="45.1662" fill="#414141"/>
<path d="M85.6041 50.5151C81.8836 74.4314 64.3645 82.2018 44.7372 79.0368C25.1099 75.8717 10.8067 62.9699 14.5273 39.0535C18.2478 15.1372 35.3388 10.1186 54.9661 13.2836C74.5934 16.4486 89.3246 26.5987 85.6041 50.5151Z" fill="#FFA135"/>
<path d="M85.6041 50.5151C81.8836 74.4314 64.3645 82.2018 44.7372 79.0368C25.1099 75.8717 10.8067 62.9699 14.5273 39.0535C18.2478 15.1372 35.3388 10.1186 54.9661 13.2836C74.5934 16.4486 89.3246 26.5987 85.6041 50.5151Z" fill="#636363"/>
<path d="M28.7507 56.5C28.7507 64.5435 36.396 83 28.7507 83C21.1053 83 13.5 70 10 62C6.49998 54 10.5497 32 18.1951 32C25.8405 32 28.7507 48.4565 28.7507 56.5Z" fill="#292929"/>
<path d="M41.2048 28.5344C41.0661 20.4433 44.431 16.5273 52.9105 16.3766C61.3901 16.2259 79.1169 30.5263 73.2745 39.3079C67.3416 44.5016 65.5915 40.2647 57.1119 40.4154C48.6323 40.5661 41.3435 36.6255 41.2048 28.5344Z" fill="#343434"/>
<path d="M73.1125 59.2504C77.7582 52.6245 81.0731 40.1825 88.0203 45.047C94.9675 49.9115 89.4937 63.4271 83.3193 71.9198C77.3086 80.1873 66.2779 85.6221 59.3307 80.7577C52.3835 75.8932 68.4668 65.8763 73.1125 59.2504Z" fill="#343434"/>
</svg>
