<svg width="641" height="955" viewBox="0 0 641 955" fill="none" xmlns="http://www.w3.org/2000/svg">
<path d="M439.247 229.528C426.111 269.303 349.733 309.274 326.259 348.341C302.785 387.408 283.948 399.944 264.472 388.242C244.997 376.539 270.674 329.68 299.472 294.354C336.972 248.354 451.65 186.271 439.247 229.528Z" fill="white"/>
<ellipse cx="477.311" cy="484.139" rx="341" ry="334" transform="rotate(-44 477.311 484.139)" fill="#FF7A05" fill-opacity="0.69"/>
<path d="M705.342 263.932C825.807 388.679 820.888 588.862 694.355 711.054C567.821 833.246 367.588 831.176 247.122 706.43C126.656 581.684 131.575 381.501 258.109 259.308C384.643 137.116 584.876 139.186 705.342 263.932Z" fill="url(#paint0_radial_3_28)"/>
<path d="M704 483C704 608.921 535.511 734.5 406 734.5C276.489 734.5 195.5 591.15 195.5 465.229C195.5 339.309 350.989 217.5 480.5 217.5C610.011 217.5 704 357.079 704 483Z" fill="#FFB222"/>
<path d="M585.818 440.633C593.393 527.218 487.653 623.479 400.569 631.098C313.485 638.717 250.403 544.913 242.828 458.328C235.253 371.744 332.478 278.84 419.562 271.221C506.646 263.602 578.242 354.049 585.818 440.633Z" fill="#FFBC41" fill-opacity="0.49"/>
<defs>
<radialGradient id="paint0_radial_3_28" cx="0" cy="0" r="1" gradientUnits="userSpaceOnUse" gradientTransform="translate(476.232 485.181) rotate(46) scale(314 318.5)">
<stop offset="0.9" stop-color="#FDA400"/>
<stop offset="1" stop-color="#FF7A05"/>
</radialGradient>
</defs>
</svg>
