<svg width="70" height="71" viewBox="0 0 70 71" fill="none" xmlns="http://www.w3.org/2000/svg">
<ellipse cx="34.5846" cy="35.3438" rx="34.5846" ry="35" fill="#EB7D00"/>
<ellipse cx="34.5846" cy="35.3438" rx="34.5846" ry="35" fill="#EB7D00"/>
<ellipse cx="34.8961" cy="34.4979" rx="31.7804" ry="31.6163" fill="#FFA135"/>
<ellipse cx="34.8961" cy="34.4979" rx="31.7804" ry="31.6163" fill="#F79729"/>
<path d="M59.9229 35.7041C57.3185 52.4455 45.0552 57.8848 31.316 55.6693C17.5769 53.4538 7.56472 44.4224 10.1691 27.681C12.7735 10.9396 24.7371 7.42656 38.4762 9.64206C52.2154 11.8576 62.5272 18.9626 59.9229 35.7041Z" fill="#FFA135"/>
<path d="M59.9229 35.7041C57.3185 52.4455 45.0552 57.8848 31.316 55.6693C17.5769 53.4538 7.56472 44.4224 10.1691 27.681C12.7735 10.9396 24.7371 7.42656 38.4762 9.64206C52.2154 11.8576 62.5272 18.9626 59.9229 35.7041Z" fill="#FFAD50" fill-opacity="0.33"/>
<path d="M26.0163 47.7037C26.0163 53.3683 26.0331 57.9605 20.0964 57.9605C14.1598 57.9605 7.5816 46.178 7.5816 40.5133C7.5816 34.8487 15.1464 37.394 21.0831 37.394C27.0197 37.394 26.0163 42.039 26.0163 47.7037Z" fill="#D97400"/>
<path d="M36.7012 15.2025C36.6041 9.53871 38.9595 6.79753 44.8953 6.69205C50.831 6.58656 66.7339 23.4314 62.6441 29.5785C58.4911 33.2141 53.772 23.4137 47.8362 23.5192C41.9005 23.6247 36.7983 20.8663 36.7012 15.2025Z" fill="#D97400"/>
<path d="M52.7508 42.7458C52.7508 52.4107 45.683 60.2458 36.9645 60.2458C28.2459 60.2458 29.3309 51.1947 29.3309 41.5297C29.3309 31.8648 30.4789 26.6732 39.1974 26.6732C47.916 26.6732 52.7508 33.0808 52.7508 42.7458Z" fill="#D97400"/>
</svg>
